<svg xmlns="http://www.w3.org/2000/svg" viewBox="0 0 479.89 76.42"><defs><style>.a{fill:#1fb1aa;}.b{fill:#fff;}</style></defs><title>deem_wide_white</title><path class="a" d="M183.29,113.61c4-.21,14.7-1.18,19-1.82-.11,5.58-.54,12.66-.54,23.93l-.11,25.1c0,8.48.11,13,.43,19.1.22,2.15.64,2.47,2.15,2.58l3.32.1-.32,1.29c-5.9.43-13,.86-18.78,1.83,0-1.94.11-4.62.11-6.23h-.21c-3.33,3.22-7.51,6.23-12.66,6.23a13.4,13.4,0,0,1-11-4.94c-2.89-3.54-4.93-9.33-4.93-18,0-12.66,5.68-24.9,21.13-24.9,3.12,0,6.23.75,7.62,1.83,0-6.65.11-15.88-.21-22.21-.11-2.47-.54-2.68-5.47-2.68Zm-9.54,48.07c0,5.47,1.07,12.23,2.68,15.24,1.5,2.79,3.65,4.08,6,4.08s4.07-1.18,5.36-3.55c.54-1.18.75-2.68.75-18.77,0-10-.21-13-.64-14.16-.65-1.72-2-5.05-5.69-5.05-5.69,0-8.47,8.91-8.47,22.11Z" transform="translate(-159.8 -111.79)"/><path class="a" d="M231.15,185.72c-7.73,0-12.56-2.47-15.78-6.76-2.57-3.54-4.18-9.66-4.18-16.2,0-12.77,6.11-24.9,20.6-24.9,15.56,0,17,13,17,18,0,1.82-.64,3.75-1.39,4.18-1.72.54-5.69,1-13.63,1-1.61,0-5,.11-8.58.11a35.18,35.18,0,0,0,2,14c1.61,4.51,4.29,6.76,8.9,6.76,5.58,0,8.8-3.33,11.27-10.08l1.18.64C245.74,181.85,240.05,185.72,231.15,185.72Zm.32-46.25c-3.76,0-5.8,8.8-6.12,20h4.72a20.17,20.17,0,0,0,4.83-.43c1.18-.32,1.82-1.61,1.82-4.4,0-4.08-.21-15.13-5.15-15.13Z" transform="translate(-159.8 -111.79)"/><path class="a" d="M274.7,185.72c-7.72,0-12.55-2.47-15.77-6.76-2.57-3.54-4.18-9.66-4.18-16.2,0-12.77,6.11-24.9,20.6-24.9,15.56,0,16.95,13,16.95,18,0,1.82-.64,3.75-1.39,4.18-1.72.54-5.69,1-13.63,1-1.61,0-5,.11-8.58.11a35.38,35.38,0,0,0,2,14c1.61,4.51,4.3,6.76,8.91,6.76,5.58,0,8.8-3.33,11.27-10.08l1.18.64C289.3,181.85,283.61,185.72,274.7,185.72Zm.33-46.25c-3.76,0-5.8,8.8-6.12,20h4.72a20.17,20.17,0,0,0,4.83-.43c1.18-.32,1.82-1.61,1.82-4.4,0-4.08-.21-15.13-5.15-15.13Z" transform="translate(-159.8 -111.79)"/><path class="a" d="M301.31,156.21c0-6.33-.21-10.19-.32-13.52-.11-1.39-.64-1.82-5-1.61l.43-1.29a92.56,92.56,0,0,0,17.27-1.5c.32,1.83.75,5.37.86,7,3.11-2.79,8.26-7.41,15-7.41,4.51,0,6.76,1.83,7.94,3.44a9.35,9.35,0,0,1,1.93,3.86c3.33-2.68,8.16-7.3,15-7.3,5.26,0,7.94,2.69,9.23,5a11.56,11.56,0,0,1,1.4,5.79v31.65c0,2.25.53,2.47,4.93,3.11l-.11,1.18c-3.32,0-7-.32-12.23-.32-5.68,0-8.69.32-10,.32l.11-1.18c3.11-.32,3.65-.75,3.86-2.57.11-2.68.33-6.44.33-15.24,0-17.16-.11-18.13-.43-19.31a4.61,4.61,0,0,0-4.62-3.43c-2.79,0-5,1.71-6.43,4.29a7.65,7.65,0,0,0-.76,4.08v19.31c0,4.18,0,7.94.22,10.41.11,1.6.64,2,4.61,2.36l-.32,1.28c-1.82,0-7.08-.32-11.37-.32-5.8,0-9,.32-10.62.32v-1.39c3.43-.32,4-.54,4.18-2.68.11-3,.21-7.41.21-13.31V153c0-4.83,0-6-.53-7.08a4.53,4.53,0,0,0-4.29-3c-2.47,0-4.72,1.61-6.23,4.07a8.32,8.32,0,0,0-1.18,4.94v18.67a91.33,91.33,0,0,0,.32,10c.22,2.14.76,2.36,4.4,2.79l-.21,1.28c-2,0-6.65-.32-10.94-.32-4.94,0-9.55.32-11.91.32v-1.28c4.18-.33,4.72-.54,4.93-3.22s.32-7,.32-12.88Z" transform="translate(-159.8 -111.79)"/><path class="b" d="M405.74,154a3,3,0,0,1-2.23-.79,3.37,3.37,0,0,1-.81-2.52v-11h-2.39c-.2,0-.29-.07-.29-.23v-.28l2.68-.11.23-5.89A.37.37,0,0,1,403,133a.2.2,0,0,1,.17-.09h.34V139h5.06v.62h-5.06v11a3.63,3.63,0,0,0,.19,1.22,2.27,2.27,0,0,0,.5.83,1.68,1.68,0,0,0,.73.47,2.83,2.83,0,0,0,.93.15,2.87,2.87,0,0,0,1.06-.18,4,4,0,0,0,.78-.41,3.81,3.81,0,0,0,.53-.4c.14-.13.24-.19.3-.19a.26.26,0,0,1,.17.09l.2.3a3.79,3.79,0,0,1-.61.59,4.24,4.24,0,0,1-.77.46,4.48,4.48,0,0,1-.87.3A4.06,4.06,0,0,1,405.74,154Z" transform="translate(-159.8 -111.79)"/><path class="b" d="M424.11,138.45l-8.93,20.45a1.34,1.34,0,0,1-.18.28.41.41,0,0,1-.31.12h-.55l2.64-5.91-6.55-14.94h.62a.35.35,0,0,1,.27.1.41.41,0,0,1,.13.18L417,151.84a3.28,3.28,0,0,1,.23.71c.07-.22.16-.46.26-.71l5.69-13.11a.53.53,0,0,1,.16-.2.37.37,0,0,1,.22-.08Z" transform="translate(-159.8 -111.79)"/><path class="b" d="M428.35,141.43a7.82,7.82,0,0,1,2.44-2.36,5.92,5.92,0,0,1,3.15-.86,5.45,5.45,0,0,1,4.47,1.92Q440,142.05,440,146a10.75,10.75,0,0,1-.43,3.12,7.38,7.38,0,0,1-1.27,2.52,5.86,5.86,0,0,1-2.1,1.68,6.44,6.44,0,0,1-2.89.62,5.57,5.57,0,0,1-4.92-2.53v7.88h-.83V138.45h.39a.28.28,0,0,1,.31.31Zm0,9.15a5.77,5.77,0,0,0,2.11,2.12,5.64,5.64,0,0,0,2.68.61,5.86,5.86,0,0,0,2.63-.55,5.31,5.31,0,0,0,1.86-1.53,6.72,6.72,0,0,0,1.12-2.31,10.73,10.73,0,0,0,.37-2.91q0-3.64-1.38-5.4a4.8,4.8,0,0,0-4-1.75,5.38,5.38,0,0,0-3,.88,8.07,8.07,0,0,0-2.4,2.46Z" transform="translate(-159.8 -111.79)"/><path class="b" d="M450.37,138.21a7,7,0,0,1,2.9.56,5.93,5.93,0,0,1,2.13,1.6,7.06,7.06,0,0,1,1.32,2.49,11.05,11.05,0,0,1,.45,3.25,10.82,10.82,0,0,1-.45,3.23,6.93,6.93,0,0,1-1.32,2.48,5.88,5.88,0,0,1-2.13,1.58,7.89,7.89,0,0,1-5.79,0,5.92,5.92,0,0,1-2.14-1.58,7.09,7.09,0,0,1-1.32-2.48,10.82,10.82,0,0,1-.45-3.23,11.05,11.05,0,0,1,.45-3.25,7.22,7.22,0,0,1,1.32-2.49,6,6,0,0,1,2.14-1.6A7,7,0,0,1,450.37,138.21Zm0,15.08a6.2,6.2,0,0,0,2.61-.51,4.88,4.88,0,0,0,1.87-1.46,6.4,6.4,0,0,0,1.13-2.26,10.83,10.83,0,0,0,.37-2.95,11,11,0,0,0-.37-3,6.55,6.55,0,0,0-1.13-2.29,5,5,0,0,0-1.87-1.47,6.79,6.79,0,0,0-5.21,0,5,5,0,0,0-1.87,1.47,6.38,6.38,0,0,0-1.13,2.29,11,11,0,0,0-.37,3,10.83,10.83,0,0,0,.37,2.95,6.24,6.24,0,0,0,1.13,2.26,4.88,4.88,0,0,0,1.87,1.46A6.19,6.19,0,0,0,450.37,153.29Z" transform="translate(-159.8 -111.79)"/><path class="b" d="M473.69,139.17v.25a.25.25,0,0,1-.09.2.43.43,0,0,1-.23.09l-2.75.11a4.42,4.42,0,0,1,.88,1.46,5.42,5.42,0,0,1-.07,3.8,4.44,4.44,0,0,1-1.07,1.55,4.63,4.63,0,0,1-1.67,1,6.46,6.46,0,0,1-2.17.35,6.19,6.19,0,0,1-2.58-.51,4,4,0,0,0-1.17,1,2,2,0,0,0-.44,1.15,1.35,1.35,0,0,0,.48,1.11,3.2,3.2,0,0,0,1.26.58,10.68,10.68,0,0,0,1.77.24l2.05.1c.7,0,1.38.09,2.05.17a6.53,6.53,0,0,1,1.78.45,3.15,3.15,0,0,1,1.26.93,2.52,2.52,0,0,1,.48,1.62,3.74,3.74,0,0,1-.47,1.79,4.73,4.73,0,0,1-1.36,1.51,7,7,0,0,1-2.14,1,9.28,9.28,0,0,1-2.78.4,10.6,10.6,0,0,1-2.78-.33,6.43,6.43,0,0,1-2-.89,3.9,3.9,0,0,1-1.23-1.31,3.3,3.3,0,0,1-.41-1.59,3.1,3.1,0,0,1,.85-2.18,5.55,5.55,0,0,1,2.33-1.42,3.13,3.13,0,0,1-1.34-.73,1.77,1.77,0,0,1-.51-1.36,1.82,1.82,0,0,1,.14-.66,2.73,2.73,0,0,1,.37-.69,4.25,4.25,0,0,1,.58-.64,3.61,3.61,0,0,1,.78-.54,4.35,4.35,0,0,1-1.66-1.69,4.92,4.92,0,0,1-.59-2.46,5.1,5.1,0,0,1,.37-2,4.47,4.47,0,0,1,1.06-1.54,4.89,4.89,0,0,1,1.67-1,6.29,6.29,0,0,1,2.19-.35,6.74,6.74,0,0,1,1.85.24,5,5,0,0,1,1.5.72Zm-1,15.74a2,2,0,0,0-.41-1.31,2.61,2.61,0,0,0-1.08-.76,6.15,6.15,0,0,0-1.56-.38c-.59-.08-1.21-.13-1.84-.16l-1.91-.09a13.43,13.43,0,0,1-1.78-.2,7.2,7.2,0,0,0-1.25.58,4.7,4.7,0,0,0-1,.75,3.22,3.22,0,0,0-.64.93,2.62,2.62,0,0,0-.24,1.12,2.69,2.69,0,0,0,.39,1.4,3.46,3.46,0,0,0,1.13,1.12,6.27,6.27,0,0,0,1.79.76,9.62,9.62,0,0,0,2.39.28,8.63,8.63,0,0,0,2.3-.3,6.77,6.77,0,0,0,1.91-.83,4.29,4.29,0,0,0,1.3-1.28A3,3,0,0,0,472.71,154.91Zm-6.19-7.53a5.52,5.52,0,0,0,1.92-.31,3.93,3.93,0,0,0,1.42-.88,3.66,3.66,0,0,0,.89-1.35,4.81,4.81,0,0,0,.3-1.74,4.61,4.61,0,0,0-.31-1.74,3.7,3.7,0,0,0-.89-1.35,3.82,3.82,0,0,0-1.43-.87,5.41,5.41,0,0,0-1.9-.31,5.31,5.31,0,0,0-1.89.31,3.78,3.78,0,0,0-1.42.87,3.72,3.72,0,0,0-.9,1.35,5,5,0,0,0,0,3.48,3.81,3.81,0,0,0,.9,1.35,3.93,3.93,0,0,0,1.42.88A5.31,5.31,0,0,0,466.52,147.38Z" transform="translate(-159.8 -111.79)"/><path class="b" d="M478.18,142.55a9.79,9.79,0,0,1,.8-1.84,5.79,5.79,0,0,1,1.08-1.37,4.34,4.34,0,0,1,1.39-.85,5.12,5.12,0,0,1,1.76-.28,5.79,5.79,0,0,1,.92.07,2.3,2.3,0,0,1,.85.28l-.1.48a.21.21,0,0,1-.21.17,1.66,1.66,0,0,1-.52-.11,3.43,3.43,0,0,0-1-.12,4.57,4.57,0,0,0-1.71.3,4,4,0,0,0-1.34.9,6,6,0,0,0-1,1.47,13.73,13.73,0,0,0-.82,2.07v10h-.82V138.45h.37c.21,0,.31.12.32.35Z" transform="translate(-159.8 -111.79)"/><path class="b" d="M487.37,140.63a8.72,8.72,0,0,1,2.4-1.8,6.35,6.35,0,0,1,2.88-.62,5.15,5.15,0,0,1,2.08.38,3.63,3.63,0,0,1,1.46,1.09,4.7,4.7,0,0,1,.87,1.73,8.94,8.94,0,0,1,.27,2.29v10.06h-.27a.33.33,0,0,1-.36-.33l-.16-2.26a17.09,17.09,0,0,1-1.27,1.18,7.32,7.32,0,0,1-1.35.89,7.63,7.63,0,0,1-1.54.57,7.84,7.84,0,0,1-1.81.2,4.81,4.81,0,0,1-1.45-.22,3.81,3.81,0,0,1-1.29-.68,3.33,3.33,0,0,1-.92-1.21,4.14,4.14,0,0,1-.35-1.77,3.07,3.07,0,0,1,.58-1.83,4.56,4.56,0,0,1,1.81-1.42,12.07,12.07,0,0,1,3.11-.95,28.69,28.69,0,0,1,4.47-.41V143.7a5.64,5.64,0,0,0-1-3.57,3.5,3.5,0,0,0-2.95-1.27,5.48,5.48,0,0,0-2,.33,6.1,6.1,0,0,0-1.4.75,7.71,7.71,0,0,0-.89.74c-.22.22-.39.34-.5.34a.34.34,0,0,1-.28-.18Zm9.16,5.46a19.36,19.36,0,0,0-6.93,1.17c-1.5.67-2.25,1.62-2.25,2.84a3.47,3.47,0,0,0,.29,1.47,2.85,2.85,0,0,0,.76,1,3,3,0,0,0,1.08.61,4,4,0,0,0,1.24.19,6.93,6.93,0,0,0,1.82-.22,6.82,6.82,0,0,0,1.52-.62,7.24,7.24,0,0,0,1.3-.91,15.39,15.39,0,0,0,1.17-1.12Z" transform="translate(-159.8 -111.79)"/><path class="b" d="M503.43,141.43a8,8,0,0,1,2.45-2.36,5.89,5.89,0,0,1,3.14-.86,5.46,5.46,0,0,1,4.48,1.92q1.57,1.92,1.58,5.88a10.75,10.75,0,0,1-.43,3.12,7.38,7.38,0,0,1-1.27,2.52,6,6,0,0,1-2.1,1.68,6.47,6.47,0,0,1-2.89.62,5.55,5.55,0,0,1-4.92-2.53v7.88h-.83V138.45H503a.28.28,0,0,1,.31.31Zm0,9.15a5.77,5.77,0,0,0,2.11,2.12,5.64,5.64,0,0,0,2.68.61,5.86,5.86,0,0,0,2.63-.55,5.31,5.31,0,0,0,1.86-1.53,6.72,6.72,0,0,0,1.12-2.31,10.73,10.73,0,0,0,.37-2.91q0-3.64-1.38-5.4a4.8,4.8,0,0,0-4-1.75,5.44,5.44,0,0,0-3,.88,8.16,8.16,0,0,0-2.39,2.46Z" transform="translate(-159.8 -111.79)"/><path class="b" d="M520.43,141.37a8.56,8.56,0,0,1,2.55-2.3,6.18,6.18,0,0,1,3.21-.86,5.88,5.88,0,0,1,2.23.39,4.07,4.07,0,0,1,1.58,1.14,4.84,4.84,0,0,1,1,1.8,8.62,8.62,0,0,1,.32,2.43v9.79h-.82V144a7.85,7.85,0,0,0-.27-2.15,4.24,4.24,0,0,0-.81-1.6,3.59,3.59,0,0,0-1.38-1,4.8,4.8,0,0,0-1.94-.35,5.72,5.72,0,0,0-3.09.88,8.77,8.77,0,0,0-2.53,2.42v11.6h-.82V131.31h.82Z" transform="translate(-159.8 -111.79)"/><path class="b" d="M548.19,138.45l-8.93,20.45a1.34,1.34,0,0,1-.18.28.41.41,0,0,1-.31.12h-.55l2.64-5.91-6.55-14.94h.62a.33.33,0,0,1,.27.1.44.44,0,0,1,.14.18l5.71,13.11a3.28,3.28,0,0,1,.23.71,7.19,7.19,0,0,1,.27-.71l5.68-13.11a.53.53,0,0,1,.16-.2.38.38,0,0,1,.23-.08Z" transform="translate(-159.8 -111.79)"/><path class="a" d="M571.07,131.31v22.45h-.37a.29.29,0,0,1-.33-.31l-.09-2.73a8.08,8.08,0,0,1-2.44,2.37,6,6,0,0,1-3.15.86,5.45,5.45,0,0,1-4.48-1.93q-1.58-1.92-1.57-5.88a11.1,11.1,0,0,1,.42-3.12,7.49,7.49,0,0,1,1.28-2.52,6,6,0,0,1,2.09-1.68,6.51,6.51,0,0,1,2.9-.61,6.21,6.21,0,0,1,2.85.62,5.79,5.79,0,0,1,2.07,1.89v-9.41Zm-.82,10.23a5.94,5.94,0,0,0-2.13-2.09,5.71,5.71,0,0,0-2.67-.61,6,6,0,0,0-2.62.55,5.14,5.14,0,0,0-1.86,1.53,6.77,6.77,0,0,0-1.12,2.32,10.66,10.66,0,0,0-.37,2.9c0,2.43.45,4.23,1.37,5.4a4.78,4.78,0,0,0,4,1.75,5.39,5.39,0,0,0,3-.88,8.14,8.14,0,0,0,2.4-2.45Z" transform="translate(-159.8 -111.79)"/><path class="a" d="M587.88,151.88a3.53,3.53,0,0,1-.87.76,6.39,6.39,0,0,1-1.28.66,9.83,9.83,0,0,1-1.56.47,8.33,8.33,0,0,1-1.73.18,7.19,7.19,0,0,1-2.84-.55,5.86,5.86,0,0,1-2.15-1.6,7.1,7.1,0,0,1-1.38-2.55,11.41,11.41,0,0,1-.48-3.45,9.65,9.65,0,0,1,.46-3.07,6.76,6.76,0,0,1,1.33-2.4,6,6,0,0,1,2.12-1.57,7,7,0,0,1,2.86-.55,6.14,6.14,0,0,1,2.32.43,5.41,5.41,0,0,1,1.89,1.28,6,6,0,0,1,1.26,2.09,8.06,8.06,0,0,1,.46,2.84c0,.22-.09.33-.28.33h-11.6c0,.1,0,.2,0,.3v.32a10.94,10.94,0,0,0,.43,3.23,6.67,6.67,0,0,0,1.23,2.34,5.15,5.15,0,0,0,1.92,1.44,6.3,6.3,0,0,0,2.5.48,7.45,7.45,0,0,0,2.13-.27,8.53,8.53,0,0,0,1.5-.59,6,6,0,0,0,.94-.6,1.23,1.23,0,0,1,.43-.27.25.25,0,0,1,.2.09Zm-.34-7.25a7.22,7.22,0,0,0-.39-2.46,5.38,5.38,0,0,0-1.09-1.82,4.58,4.58,0,0,0-1.64-1.14,5.5,5.5,0,0,0-2-.38,6.13,6.13,0,0,0-2.33.41,5,5,0,0,0-1.78,1.17,5.81,5.81,0,0,0-1.2,1.83,8.06,8.06,0,0,0-.6,2.39Z" transform="translate(-159.8 -111.79)"/><path class="b" d="M600.75,140a.25.25,0,0,1-.23.14.8.8,0,0,1-.4-.21,4.28,4.28,0,0,0-.7-.45,6.63,6.63,0,0,0-1.13-.45,5.66,5.66,0,0,0-1.67-.21,4.86,4.86,0,0,0-1.66.27,4.19,4.19,0,0,0-1.3.73,3.25,3.25,0,0,0-.84,1,2.77,2.77,0,0,0-.29,1.26,2.11,2.11,0,0,0,.38,1.3,3.09,3.09,0,0,0,1,.89,6.53,6.53,0,0,0,1.41.63l1.61.51c.55.17,1.09.35,1.62.55a6.24,6.24,0,0,1,1.41.73,3.4,3.4,0,0,1,1,1.07,3,3,0,0,1,.38,1.57,4.69,4.69,0,0,1-.34,1.8,4.22,4.22,0,0,1-1,1.47,4.73,4.73,0,0,1-1.61,1,6.19,6.19,0,0,1-2.18.36,8.35,8.35,0,0,1-1.49-.13,6.75,6.75,0,0,1-1.25-.38,5.8,5.8,0,0,1-1.07-.58,9.69,9.69,0,0,1-1-.76l.2-.26a.68.68,0,0,1,.12-.12.34.34,0,0,1,.18,0,.84.84,0,0,1,.44.26,5.32,5.32,0,0,0,.78.56,5.46,5.46,0,0,0,1.23.57,5.72,5.72,0,0,0,1.83.26,5.51,5.51,0,0,0,1.89-.3,3.87,3.87,0,0,0,1.36-.84,3.31,3.31,0,0,0,.83-1.23,4,4,0,0,0,.28-1.5,2.35,2.35,0,0,0-.38-1.39,3,3,0,0,0-1-.94,6.55,6.55,0,0,0-1.41-.65l-1.62-.51c-.54-.17-1.08-.34-1.61-.54a5.82,5.82,0,0,1-1.41-.71,3.23,3.23,0,0,1-1-1.05,2.85,2.85,0,0,1-.39-1.55,3.44,3.44,0,0,1,.35-1.5,4.16,4.16,0,0,1,1-1.27,4.76,4.76,0,0,1,1.53-.88,5.69,5.69,0,0,1,2-.32,6.84,6.84,0,0,1,2.36.37,6,6,0,0,1,1.94,1.18Z" transform="translate(-159.8 -111.79)"/><path class="b" d="M607.35,132.93a.9.9,0,0,1-.09.4,1,1,0,0,1-.24.33,1.16,1.16,0,0,1-.34.24,1.14,1.14,0,0,1-.4.08,1,1,0,0,1-.75-.32,1,1,0,0,1-.32-.73,1.08,1.08,0,0,1,1.07-1.07,1.14,1.14,0,0,1,.4.08,1.36,1.36,0,0,1,.34.23,1.21,1.21,0,0,1,.24.35A1,1,0,0,1,607.35,132.93Zm-.67,5.52v15.31h-.8V138.45Z" transform="translate(-159.8 -111.79)"/><path class="b" d="M624.34,139.17v.25a.26.26,0,0,1-.1.2.43.43,0,0,1-.23.09l-2.75.11a4.62,4.62,0,0,1,.89,1.46,5.23,5.23,0,0,1,.31,1.8,5.17,5.17,0,0,1-.38,2,4.58,4.58,0,0,1-1.07,1.55,4.81,4.81,0,0,1-1.67,1,6.56,6.56,0,0,1-2.18.35,6.11,6.11,0,0,1-2.57-.51,3.92,3.92,0,0,0-1.18,1,2,2,0,0,0-.44,1.15,1.35,1.35,0,0,0,.48,1.11,3.2,3.2,0,0,0,1.26.58,10.81,10.81,0,0,0,1.78.24l2,.1c.69,0,1.38.09,2.05.17a6.46,6.46,0,0,1,1.77.45,3.15,3.15,0,0,1,1.26.93,2.52,2.52,0,0,1,.48,1.62,3.74,3.74,0,0,1-.47,1.79,4.73,4.73,0,0,1-1.36,1.51,7.06,7.06,0,0,1-2.13,1,9.4,9.4,0,0,1-2.79.4,10.47,10.47,0,0,1-2.77-.33,6.49,6.49,0,0,1-2-.89,4.11,4.11,0,0,1-1.23-1.31,3.3,3.3,0,0,1-.41-1.59,3.11,3.11,0,0,1,.86-2.18,5.45,5.45,0,0,1,2.32-1.42,3.26,3.26,0,0,1-1.34-.73,2,2,0,0,1-.37-2,3.09,3.09,0,0,1,.37-.69,4.86,4.86,0,0,1,.58-.64,3.61,3.61,0,0,1,.78-.54,4.42,4.42,0,0,1-1.66-1.69,5,5,0,0,1-.59-2.46,5.1,5.1,0,0,1,.37-2,4.47,4.47,0,0,1,1.06-1.54,5,5,0,0,1,1.67-1,6.37,6.37,0,0,1,2.19-.35,6.86,6.86,0,0,1,1.86.24,5.21,5.21,0,0,1,1.5.72Zm-1,15.74a2,2,0,0,0-.41-1.31,2.71,2.71,0,0,0-1.09-.76,6.15,6.15,0,0,0-1.56-.38c-.59-.08-1.2-.13-1.84-.16l-1.91-.09a13.43,13.43,0,0,1-1.78-.2,7.56,7.56,0,0,0-1.25.58,4.7,4.7,0,0,0-1,.75,3.43,3.43,0,0,0-.64.93,2.61,2.61,0,0,0-.23,1.12,2.69,2.69,0,0,0,.39,1.4,3.33,3.33,0,0,0,1.12,1.12,6.27,6.27,0,0,0,1.79.76,9.68,9.68,0,0,0,2.39.28,8.58,8.58,0,0,0,2.3-.3,6.65,6.65,0,0,0,1.91-.83,4.45,4.45,0,0,0,1.31-1.28A3,3,0,0,0,623.36,154.91Zm-6.2-7.53a5.45,5.45,0,0,0,1.92-.31,4.06,4.06,0,0,0,1.43-.88,3.64,3.64,0,0,0,.88-1.35,5,5,0,0,0,0-3.48,3.72,3.72,0,0,0-.9-1.35,3.82,3.82,0,0,0-1.43-.87,5.95,5.95,0,0,0-3.79,0,3.86,3.86,0,0,0-1.42.87,3.58,3.58,0,0,0-.89,1.35,4.89,4.89,0,0,0,0,3.48,3.66,3.66,0,0,0,.89,1.35,4,4,0,0,0,1.42.88A5.35,5.35,0,0,0,617.16,147.38Z" transform="translate(-159.8 -111.79)"/><path class="b" d="M628.82,141.42a8.44,8.44,0,0,1,2.55-2.34,6.3,6.3,0,0,1,3.24-.87,5.88,5.88,0,0,1,2.23.39,4.07,4.07,0,0,1,1.58,1.14,4.84,4.84,0,0,1,1,1.8,8.62,8.62,0,0,1,.32,2.43v9.79h-.83V144a7.87,7.87,0,0,0-.26-2.15,4.39,4.39,0,0,0-.81-1.6,3.59,3.59,0,0,0-1.38-1,4.8,4.8,0,0,0-1.94-.35,5.75,5.75,0,0,0-3.1.88,8.86,8.86,0,0,0-2.52,2.42v11.6H628V138.45h.39a.29.29,0,0,1,.31.31Z" transform="translate(-159.8 -111.79)"/><path class="b" d="M401.83,182.67V167.36h.39c.2,0,.3.1.31.31l.09,2.58a7.9,7.9,0,0,1,2.12-2.28,4.59,4.59,0,0,1,2.7-.86,3.65,3.65,0,0,1,2.77,1.06,5.33,5.33,0,0,1,1.34,3,5.44,5.44,0,0,1,.72-1.77,5,5,0,0,1,1.14-1.26,4.46,4.46,0,0,1,1.43-.75,5.39,5.39,0,0,1,1.6-.24,5.08,5.08,0,0,1,2,.38A4.21,4.21,0,0,1,420,168.6a5.14,5.14,0,0,1,.95,1.8,8.1,8.1,0,0,1,.34,2.47v9.8h-.83v-9.8a5.88,5.88,0,0,0-1.06-3.79,3.67,3.67,0,0,0-3-1.32,4.51,4.51,0,0,0-1.67.32,3.91,3.91,0,0,0-1.42,1,4.86,4.86,0,0,0-1,1.59,6.1,6.1,0,0,0-.37,2.23v9.8h-.83v-9.8a6.39,6.39,0,0,0-1-3.77,3.26,3.26,0,0,0-2.83-1.34,4.19,4.19,0,0,0-2.56.87,8,8,0,0,0-2.05,2.39v11.65Z" transform="translate(-159.8 -111.79)"/><path class="b" d="M428.19,161.83a1,1,0,0,1-.09.41,1.27,1.27,0,0,1-.24.33,1.1,1.1,0,0,1-.74.32,1,1,0,0,1-.75-.32,1,1,0,0,1,0-1.49,1,1,0,0,1,.75-.32,1.1,1.1,0,0,1,.74.32,1.16,1.16,0,0,1,.24.34A1,1,0,0,1,428.19,161.83Zm-.67,5.53v15.31h-.8V167.36Z" transform="translate(-159.8 -111.79)"/><path class="b" d="M443.28,169l-.09.08a.18.18,0,0,1-.13,0,.78.78,0,0,1-.39-.22,5.12,5.12,0,0,0-.73-.48,6.51,6.51,0,0,0-1.18-.48,6.1,6.1,0,0,0-1.72-.22,6,6,0,0,0-2.54.51,5.11,5.11,0,0,0-1.87,1.45,6.49,6.49,0,0,0-1.18,2.28,10.4,10.4,0,0,0-.4,3,10.66,10.66,0,0,0,.41,3.07,6.37,6.37,0,0,0,1.17,2.26,5.05,5.05,0,0,0,1.81,1.4,5.7,5.7,0,0,0,2.37.48,6.23,6.23,0,0,0,2-.27,7.25,7.25,0,0,0,1.33-.61,4.22,4.22,0,0,0,.8-.61c.19-.18.32-.27.41-.27a.23.23,0,0,1,.2.1l.18.23a3.64,3.64,0,0,1-.76.76,5.68,5.68,0,0,1-1.14.66,7.06,7.06,0,0,1-1.43.46,7.35,7.35,0,0,1-1.66.18,6.52,6.52,0,0,1-2.67-.52,5.75,5.75,0,0,1-2.05-1.54,7.27,7.27,0,0,1-1.31-2.47,10.85,10.85,0,0,1-.46-3.31,11,11,0,0,1,.45-3.23,7.24,7.24,0,0,1,1.33-2.49,6,6,0,0,1,2.13-1.6,6.72,6.72,0,0,1,2.87-.58,6.43,6.43,0,0,1,4.47,1.66Z" transform="translate(-159.8 -111.79)"/><path class="b" d="M448.51,171.46a10.2,10.2,0,0,1,.81-1.85,5.49,5.49,0,0,1,1.08-1.36,4.07,4.07,0,0,1,1.39-.85,5,5,0,0,1,1.75-.29,7.26,7.26,0,0,1,.92.07,2.31,2.31,0,0,1,.85.29l-.09.48a.23.23,0,0,1-.22.17,2.09,2.09,0,0,1-.52-.11,3.36,3.36,0,0,0-1-.12,4.63,4.63,0,0,0-1.72.3,3.94,3.94,0,0,0-1.33.89,6.26,6.26,0,0,0-1,1.48,14,14,0,0,0-.82,2.06v10h-.82V167.36h.37c.21,0,.32.11.33.34Z" transform="translate(-159.8 -111.79)"/><path class="b" d="M463.38,167.11a7,7,0,0,1,2.9.57,5.93,5.93,0,0,1,2.13,1.6,7.06,7.06,0,0,1,1.32,2.49,11.89,11.89,0,0,1,0,6.48,7,7,0,0,1-1.32,2.48,5.74,5.74,0,0,1-2.13,1.57,7.89,7.89,0,0,1-5.79,0,5.7,5.7,0,0,1-2.14-1.57,7,7,0,0,1-1.32-2.48,11.89,11.89,0,0,1,0-6.48,7.06,7.06,0,0,1,1.32-2.49,5.88,5.88,0,0,1,2.14-1.6A7,7,0,0,1,463.38,167.11Zm0,15.09a6.2,6.2,0,0,0,2.61-.51,5,5,0,0,0,1.87-1.46A6.45,6.45,0,0,0,469,178a10.78,10.78,0,0,0,.37-3,11,11,0,0,0-.37-3,6.55,6.55,0,0,0-1.13-2.29,5,5,0,0,0-1.87-1.48,6.2,6.2,0,0,0-2.61-.52,6.26,6.26,0,0,0-2.61.52,5.19,5.19,0,0,0-1.87,1.48,6.53,6.53,0,0,0-1.12,2.29,11,11,0,0,0-.37,3,10.78,10.78,0,0,0,.37,3,6.43,6.43,0,0,0,1.12,2.27,5.14,5.14,0,0,0,1.87,1.46A6.27,6.27,0,0,0,463.38,182.2Z" transform="translate(-159.8 -111.79)"/><path class="b" d="M482.85,168.93a.25.25,0,0,1-.23.14.73.73,0,0,1-.4-.21,4,4,0,0,0-.71-.45,6.49,6.49,0,0,0-1.12-.45,5.71,5.71,0,0,0-1.67-.21,4.92,4.92,0,0,0-1.67.27,4.23,4.23,0,0,0-1.29.72,3,3,0,0,0-.84,1.06,2.77,2.77,0,0,0-.3,1.25,2.21,2.21,0,0,0,.38,1.31,3.32,3.32,0,0,0,1,.89,6.84,6.84,0,0,0,1.42.62l1.61.51c.55.18,1.09.36,1.62.56a6.26,6.26,0,0,1,1.41.73,3.4,3.4,0,0,1,1,1.07,3,3,0,0,1,.38,1.56,4.7,4.7,0,0,1-.34,1.81,4.28,4.28,0,0,1-1,1.46,4.7,4.7,0,0,1-1.62,1,6.11,6.11,0,0,1-2.18.36,7.55,7.55,0,0,1-1.49-.14,6,6,0,0,1-1.24-.37,5.8,5.8,0,0,1-1.07-.58,9.69,9.69,0,0,1-1-.76l.2-.27a.56.56,0,0,1,.11-.11.3.3,0,0,1,.18,0,.74.74,0,0,1,.44.26,5.93,5.93,0,0,0,.78.56,5.77,5.77,0,0,0,1.24.57,5.65,5.65,0,0,0,1.83.25,5.41,5.41,0,0,0,1.88-.3,3.9,3.9,0,0,0,1.37-.83,3.43,3.43,0,0,0,.83-1.23,4,4,0,0,0,.28-1.5,2.46,2.46,0,0,0-.38-1.4,3.34,3.34,0,0,0-1-.94,6.86,6.86,0,0,0-1.42-.64c-.52-.18-1.06-.35-1.61-.51s-1.09-.35-1.61-.54a6.5,6.5,0,0,1-1.42-.71,3.7,3.7,0,0,1-1-1.05,3,3,0,0,1-.38-1.55,3.44,3.44,0,0,1,.35-1.5,3.78,3.78,0,0,1,1-1.27,4.76,4.76,0,0,1,1.53-.88,5.69,5.69,0,0,1,2-.33,7.09,7.09,0,0,1,2.36.37,6.28,6.28,0,0,1,1.94,1.18Z" transform="translate(-159.8 -111.79)"/><path class="b" d="M499.44,167.36l-8.92,20.45a1.73,1.73,0,0,1-.19.28.39.39,0,0,1-.31.12h-.54l2.64-5.92-6.55-14.93h.62a.4.4,0,0,1,.27.09.5.5,0,0,1,.13.19l5.71,13.1a3.58,3.58,0,0,1,.24.72c.07-.22.16-.46.26-.72l5.68-13.1a.55.55,0,0,1,.17-.2.35.35,0,0,1,.22-.08Z" transform="translate(-159.8 -111.79)"/><path class="b" d="M510.85,168.93a.25.25,0,0,1-.23.14.74.74,0,0,1-.39-.21,4.43,4.43,0,0,0-.71-.45,6.63,6.63,0,0,0-1.13-.45,5.64,5.64,0,0,0-1.66-.21,4.88,4.88,0,0,0-1.67.27,4.17,4.17,0,0,0-1.3.72,3.18,3.18,0,0,0-.84,1.06,2.9,2.9,0,0,0-.29,1.25,2.14,2.14,0,0,0,.38,1.31,3.09,3.09,0,0,0,1,.89,6.52,6.52,0,0,0,1.41.62l1.62.51c.54.18,1.08.36,1.61.56a5.86,5.86,0,0,1,1.41.73,3.29,3.29,0,0,1,1,1.07,2.91,2.91,0,0,1,.38,1.56,4.7,4.7,0,0,1-.34,1.81,4.14,4.14,0,0,1-1,1.46,4.75,4.75,0,0,1-1.61,1,6.19,6.19,0,0,1-2.18.36,7.47,7.47,0,0,1-1.49-.14,6.06,6.06,0,0,1-1.25-.37,5.8,5.8,0,0,1-1.07-.58,9.69,9.69,0,0,1-1-.76l.2-.27a.4.4,0,0,1,.12-.11.26.26,0,0,1,.18,0,.77.77,0,0,1,.44.26,5.32,5.32,0,0,0,.78.56,5.46,5.46,0,0,0,1.23.57,5.74,5.74,0,0,0,1.83.25,5.47,5.47,0,0,0,1.89-.3,3.85,3.85,0,0,0,1.36-.83,3.31,3.31,0,0,0,.83-1.23,4,4,0,0,0,.28-1.5,2.38,2.38,0,0,0-.38-1.4,3.23,3.23,0,0,0-1-.94,6.54,6.54,0,0,0-1.41-.64c-.53-.18-1.07-.35-1.61-.51s-1.09-.35-1.62-.54a6.2,6.2,0,0,1-1.41-.71,3.44,3.44,0,0,1-1-1.05,2.87,2.87,0,0,1-.38-1.55,3.3,3.3,0,0,1,.35-1.5,3.88,3.88,0,0,1,1-1.27,4.87,4.87,0,0,1,1.53-.88,5.75,5.75,0,0,1,2-.33,7.07,7.07,0,0,1,2.35.37,6.33,6.33,0,0,1,1.95,1.18Z" transform="translate(-159.8 -111.79)"/><path class="b" d="M519.7,182.92a3.08,3.08,0,0,1-2.23-.79,3.37,3.37,0,0,1-.81-2.52v-11h-2.39c-.2,0-.3-.08-.3-.23v-.28l2.69-.11.23-5.9a.48.48,0,0,1,.08-.18.21.21,0,0,1,.17-.08h.34V168h5.06v.62h-5.06v11a3.44,3.44,0,0,0,.19,1.22,2.36,2.36,0,0,0,.5.83,1.88,1.88,0,0,0,.73.47,2.83,2.83,0,0,0,.93.15,2.71,2.71,0,0,0,1.06-.19,4,4,0,0,0,.78-.4,3.79,3.79,0,0,0,.53-.41c.14-.12.23-.18.3-.18a.26.26,0,0,1,.17.09l.2.3a4.27,4.27,0,0,1-.61.59,4.86,4.86,0,0,1-.77.45,5.29,5.29,0,0,1-.87.31A4.06,4.06,0,0,1,519.7,182.92Z" transform="translate(-159.8 -111.79)"/><path class="a" d="M537.49,180.79a3.53,3.53,0,0,1-.87.76,6.67,6.67,0,0,1-1.28.66,8.89,8.89,0,0,1-1.56.46,8.42,8.42,0,0,1-1.74.18,7,7,0,0,1-2.83-.55,6,6,0,0,1-2.16-1.59,7.24,7.24,0,0,1-1.37-2.55,11.44,11.44,0,0,1-.48-3.46,9.58,9.58,0,0,1,.46-3.06,6.81,6.81,0,0,1,1.32-2.4,6,6,0,0,1,2.13-1.57,7,7,0,0,1,2.86-.56,6.18,6.18,0,0,1,2.32.44,5.16,5.16,0,0,1,1.88,1.28,6,6,0,0,1,1.27,2.09,8.25,8.25,0,0,1,.46,2.84c0,.21-.1.32-.28.32H526c0,.11,0,.21,0,.3v.32a10.89,10.89,0,0,0,.43,3.23,6.81,6.81,0,0,0,1.23,2.35,5,5,0,0,0,1.91,1.43,6.18,6.18,0,0,0,2.51.49,7.45,7.45,0,0,0,2.13-.27,7.78,7.78,0,0,0,1.5-.6,5.33,5.33,0,0,0,.94-.6,1.23,1.23,0,0,1,.43-.27.23.23,0,0,1,.2.1Zm-.34-7.25a7.22,7.22,0,0,0-.39-2.46,5.53,5.53,0,0,0-1.09-1.83,4.68,4.68,0,0,0-1.64-1.13,5.31,5.31,0,0,0-2-.39,6.29,6.29,0,0,0-2.33.41,5.18,5.18,0,0,0-1.78,1.18,5.6,5.6,0,0,0-1.2,1.83,8,8,0,0,0-.6,2.39Z" transform="translate(-159.8 -111.79)"/><path class="a" d="M542.23,182.67V167.36h.39a.28.28,0,0,1,.31.31l.09,2.58a7.9,7.9,0,0,1,2.12-2.28,4.58,4.58,0,0,1,2.69-.86,3.67,3.67,0,0,1,2.78,1.06,5.4,5.4,0,0,1,1.34,3,5.23,5.23,0,0,1,.72-1.77,4.63,4.63,0,0,1,1.14-1.26,4.36,4.36,0,0,1,1.43-.75,5.35,5.35,0,0,1,1.6-.24,5.08,5.08,0,0,1,2,.38,4.09,4.09,0,0,1,1.51,1.11,5,5,0,0,1,1,1.8,8.44,8.44,0,0,1,.33,2.47v9.8h-.82v-9.8a5.88,5.88,0,0,0-1.06-3.79,3.68,3.68,0,0,0-3-1.32,4.55,4.55,0,0,0-1.67.32,4,4,0,0,0-1.41,1,4.88,4.88,0,0,0-1,1.59,6.31,6.31,0,0,0-.37,2.23v9.8h-.82v-9.8a6.39,6.39,0,0,0-1-3.77,3.29,3.29,0,0,0-2.83-1.34,4.19,4.19,0,0,0-2.56.87,7.85,7.85,0,0,0-2.05,2.39v11.65Z" transform="translate(-159.8 -111.79)"/></svg>