<svg xmlns="http://www.w3.org/2000/svg" viewBox="0 0 243.18 147.86"><defs><style>.a{fill:#1fb1aa;}.b{fill:#fff;}</style></defs><title>deem_white</title><path class="a" d="M155.6,78.18c4.59-.25,17-1.37,22-2.11-.12,6.45-.62,14.65-.62,27.68l-.13,29.05c0,9.81.13,15,.5,22.09.25,2.49.75,2.86,2.48,3l3.85.13-.37,1.49c-6.83.49-15,1-21.72,2.11,0-2.24.12-5.34.12-7.2h-.25c-3.85,3.72-8.69,7.2-14.65,7.2a15.52,15.52,0,0,1-12.66-5.71c-3.35-4.1-5.71-10.8-5.71-20.86,0-14.65,6.58-28.8,24.46-28.8,3.6,0,7.2.87,8.81,2.11,0-7.69.12-18.37-.25-25.69-.12-2.86-.62-3.11-6.33-3.11Zm-11,55.61c0,6.33,1.24,14.15,3.1,17.63,1.74,3.23,4.22,4.72,6.95,4.72s4.72-1.37,6.21-4.1c.62-1.37.87-3.1.87-21.72,0-11.55-.25-15-.74-16.39-.75-2-2.36-5.83-6.58-5.83-6.58,0-9.81,10.3-9.81,25.57Z" transform="translate(-128.41 -76.07)"/><path class="a" d="M211,161.6c-8.94,0-14.52-2.86-18.25-7.82-3-4.1-4.84-11.17-4.84-18.75,0-14.77,7.08-28.8,23.83-28.8,18,0,19.62,15,19.62,20.86,0,2.11-.75,4.34-1.62,4.84-2,.62-6.58,1.12-15.76,1.12-1.86,0-5.84.12-9.93.12a40.85,40.85,0,0,0,2.36,16.26c1.86,5.22,5,7.82,10.3,7.82,6.45,0,10.18-3.85,13-11.67l1.37.75C227.84,157.13,221.26,161.6,211,161.6Zm.37-53.5c-4.34,0-6.7,10.17-7.07,23.08h5.46a23.31,23.31,0,0,0,5.58-.49c1.37-.37,2.11-1.86,2.11-5.09,0-4.72-.24-17.5-5.95-17.5Z" transform="translate(-128.41 -76.07)"/><path class="a" d="M261.36,161.6c-8.94,0-14.53-2.86-18.25-7.82-3-4.1-4.84-11.17-4.84-18.75,0-14.77,7.07-28.8,23.83-28.8,18,0,19.61,15,19.61,20.86,0,2.11-.74,4.34-1.61,4.84-2,.62-6.58,1.12-15.77,1.12-1.86,0-5.83.12-9.93.12a41,41,0,0,0,2.36,16.26c1.86,5.22,5,7.82,10.31,7.82,6.45,0,10.17-3.85,13-11.67l1.37.75C278.24,157.13,271.66,161.6,261.36,161.6Zm.37-53.5c-4.35,0-6.71,10.17-7.08,23.08h5.46a23.4,23.4,0,0,0,5.59-.49c1.37-.37,2.11-1.86,2.11-5.09,0-4.72-.25-17.5-6-17.5Z" transform="translate(-128.41 -76.07)"/><path class="a" d="M292.14,127.46c0-7.32-.25-11.79-.37-15.64-.12-1.61-.75-2.11-5.84-1.86l.5-1.49a108,108,0,0,0,20-1.74c.37,2.11.87,6.21,1,8.07,3.6-3.23,9.56-8.57,17.38-8.57,5.21,0,7.82,2.11,9.18,4a10.67,10.67,0,0,1,2.24,4.46c3.85-3.1,9.43-8.44,17.38-8.44,6.08,0,9.18,3.11,10.67,5.84a13.25,13.25,0,0,1,1.62,6.7v36.62c0,2.61.62,2.86,5.71,3.6l-.13,1.37c-3.84,0-8.06-.38-14.15-.38-6.58,0-10.05.38-11.54.38l.12-1.37c3.6-.37,4.22-.87,4.47-3,.12-3.1.37-7.45.37-17.63,0-19.86-.12-21-.49-22.34a5.33,5.33,0,0,0-5.34-4c-3.23,0-5.84,2-7.45,5a9,9,0,0,0-.87,4.72V144.1c0,4.84,0,9.18.25,12,.12,1.86.75,2.35,5.34,2.73l-.37,1.49c-2.11,0-8.2-.38-13.16-.38-6.71,0-10.43.38-12.29.38v-1.62c4-.37,4.59-.62,4.84-3.1.12-3.48.25-8.57.25-15.39V123.74c0-5.59,0-7-.62-8.2a5.25,5.25,0,0,0-5-3.47c-2.85,0-5.46,1.86-7.2,4.71a9.56,9.56,0,0,0-1.36,5.72v21.6a105.52,105.52,0,0,0,.37,11.54c.25,2.48.87,2.73,5.09,3.23l-.25,1.49c-2.36,0-7.7-.38-12.66-.38-5.71,0-11,.38-13.78.38v-1.49c4.84-.38,5.46-.62,5.71-3.73s.37-8.07.37-14.89Z" transform="translate(-128.41 -76.07)"/><path class="b" d="M135.93,189.73a3.08,3.08,0,0,1-2.24-.78,3.39,3.39,0,0,1-.81-2.52v-11h-2.39c-.19,0-.29-.08-.29-.24v-.27l2.68-.11.24-5.9a.4.4,0,0,1,.07-.18.2.2,0,0,1,.17-.09h.35v6.17h5.06v.62h-5.06v11a3.61,3.61,0,0,0,.18,1.22,2.33,2.33,0,0,0,.5.83,1.83,1.83,0,0,0,.74.48,3,3,0,0,0,.92.14,2.87,2.87,0,0,0,1.06-.18,4.46,4.46,0,0,0,.79-.41,4.33,4.33,0,0,0,.52-.4c.14-.12.24-.19.3-.19a.28.28,0,0,1,.17.1l.2.29a3.11,3.11,0,0,1-.61.59,3.92,3.92,0,0,1-.77.46,4.48,4.48,0,0,1-.87.3A3.49,3.49,0,0,1,135.93,189.73Z" transform="translate(-128.41 -76.07)"/><path class="b" d="M154.29,174.18l-8.93,20.44a1.34,1.34,0,0,1-.18.28.4.4,0,0,1-.31.12h-.55l2.64-5.91-6.55-14.93H141a.37.37,0,0,1,.27.09.41.41,0,0,1,.14.19l5.71,13.1a3.47,3.47,0,0,1,.23.71c.07-.21.16-.45.27-.71l5.68-13.1a.56.56,0,0,1,.16-.21.37.37,0,0,1,.23-.07Z" transform="translate(-128.41 -76.07)"/><path class="b" d="M158.53,177.16a7.85,7.85,0,0,1,2.44-2.37,6,6,0,0,1,3.15-.86,5.49,5.49,0,0,1,4.48,1.92q1.58,1.93,1.57,5.89a10.84,10.84,0,0,1-.43,3.12,7.16,7.16,0,0,1-1.27,2.51,5.94,5.94,0,0,1-2.09,1.69,6.51,6.51,0,0,1-2.9.61,5.55,5.55,0,0,1-4.92-2.53V195h-.82V174.18h.38c.2,0,.3.1.32.31Zm0,9.14a5.77,5.77,0,0,0,2.11,2.12,5.68,5.68,0,0,0,2.69.61,5.84,5.84,0,0,0,2.62-.55,5.23,5.23,0,0,0,1.86-1.53,6.72,6.72,0,0,0,1.12-2.31,10.71,10.71,0,0,0,.37-2.9c0-2.43-.46-4.24-1.38-5.41a4.79,4.79,0,0,0-4-1.75,5.47,5.47,0,0,0-3,.88,8.07,8.07,0,0,0-2.4,2.46Z" transform="translate(-128.41 -76.07)"/><path class="b" d="M180.56,173.93a7.13,7.13,0,0,1,2.89.56,6,6,0,0,1,2.14,1.6,7.06,7.06,0,0,1,1.32,2.49,11.05,11.05,0,0,1,.45,3.25,10.94,10.94,0,0,1-.45,3.24,7,7,0,0,1-1.32,2.47,5.72,5.72,0,0,1-2.14,1.58,7.89,7.89,0,0,1-5.79,0,5.77,5.77,0,0,1-2.13-1.58,7,7,0,0,1-1.32-2.47,10.94,10.94,0,0,1-.45-3.24,11.05,11.05,0,0,1,.45-3.25,7.06,7.06,0,0,1,1.32-2.49,6,6,0,0,1,2.13-1.6A7.14,7.14,0,0,1,180.56,173.93Zm0,15.09a6,6,0,0,0,2.6-.52,5.06,5.06,0,0,0,1.88-1.45,6.52,6.52,0,0,0,1.12-2.27,10.78,10.78,0,0,0,.37-2.95,11,11,0,0,0-.37-3,6.48,6.48,0,0,0-1.12-2.28,5.14,5.14,0,0,0-1.88-1.48,6.79,6.79,0,0,0-5.21,0,5,5,0,0,0-1.87,1.48,6.5,6.5,0,0,0-1.13,2.28,11,11,0,0,0-.37,3,10.78,10.78,0,0,0,.37,2.95,6.54,6.54,0,0,0,1.13,2.27A5,5,0,0,0,178,188.5,6,6,0,0,0,180.56,189Z" transform="translate(-128.41 -76.07)"/><path class="b" d="M203.87,174.89v.25a.25.25,0,0,1-.09.2.43.43,0,0,1-.23.09l-2.75.11a4.52,4.52,0,0,1,.88,1.46,5,5,0,0,1,.32,1.8,5.18,5.18,0,0,1-.38,2,4.56,4.56,0,0,1-1.08,1.54,4.63,4.63,0,0,1-1.67,1,6.84,6.84,0,0,1-4.75-.16,3.88,3.88,0,0,0-1.17,1,2,2,0,0,0-.44,1.14,1.36,1.36,0,0,0,.48,1.12,3.2,3.2,0,0,0,1.26.57,10.81,10.81,0,0,0,1.78.24l2.05.1c.69,0,1.38.09,2,.17a6.92,6.92,0,0,1,1.78.45,3.15,3.15,0,0,1,1.26.93,2.56,2.56,0,0,1,.48,1.62,3.71,3.71,0,0,1-.47,1.79,4.76,4.76,0,0,1-1.36,1.52,7.23,7.23,0,0,1-2.14,1,9,9,0,0,1-2.78.4,10.47,10.47,0,0,1-2.77-.33,6.17,6.17,0,0,1-2-.89,4,4,0,0,1-1.23-1.31,3.3,3.3,0,0,1-.41-1.59,3.16,3.16,0,0,1,.85-2.18,5.55,5.55,0,0,1,2.33-1.42,3.09,3.09,0,0,1-1.34-.73,1.77,1.77,0,0,1-.5-1.36,1.8,1.8,0,0,1,.13-.66,3,3,0,0,1,.37-.68,3.87,3.87,0,0,1,.58-.65,3.61,3.61,0,0,1,.78-.54,4.42,4.42,0,0,1-1.66-1.69,4.92,4.92,0,0,1-.59-2.46,5.1,5.1,0,0,1,.37-2,4.43,4.43,0,0,1,1.06-1.53,4.74,4.74,0,0,1,1.67-1,6.29,6.29,0,0,1,2.19-.36,6.49,6.49,0,0,1,1.86.25,4.78,4.78,0,0,1,1.49.71Zm-1,15.74a1.93,1.93,0,0,0-.42-1.3,2.63,2.63,0,0,0-1.08-.77,6.15,6.15,0,0,0-1.56-.38c-.59-.07-1.21-.12-1.84-.16l-1.91-.09a13.43,13.43,0,0,1-1.78-.2,7.56,7.56,0,0,0-1.25.58,4.7,4.7,0,0,0-1,.75,3.14,3.14,0,0,0-.64.94,2.57,2.57,0,0,0-.23,1.11,2.75,2.75,0,0,0,.38,1.4,3.48,3.48,0,0,0,1.13,1.13,6.56,6.56,0,0,0,1.79.75,9.22,9.22,0,0,0,2.39.28,8.58,8.58,0,0,0,2.3-.3,6.39,6.39,0,0,0,1.91-.83,4.18,4.18,0,0,0,1.3-1.28A3,3,0,0,0,202.9,190.63Zm-6.2-7.53a5.49,5.49,0,0,0,1.92-.31,4.06,4.06,0,0,0,1.43-.88,3.56,3.56,0,0,0,.88-1.35,4.81,4.81,0,0,0,.3-1.74,4.68,4.68,0,0,0-.31-1.74,3.58,3.58,0,0,0-.89-1.35,4.1,4.1,0,0,0-1.43-.87,5.95,5.95,0,0,0-3.79,0,4.14,4.14,0,0,0-1.42.87,3.72,3.72,0,0,0-.9,1.35,4.89,4.89,0,0,0-.31,1.74,4.81,4.81,0,0,0,.31,1.74,3.72,3.72,0,0,0,.9,1.35,4,4,0,0,0,1.42.88A5.35,5.35,0,0,0,196.7,183.1Z" transform="translate(-128.41 -76.07)"/><path class="b" d="M208.36,178.27a10.09,10.09,0,0,1,.81-1.84,5.55,5.55,0,0,1,1.08-1.37,4.11,4.11,0,0,1,1.39-.84,4.8,4.8,0,0,1,1.75-.29,5.79,5.79,0,0,1,.92.07,2.14,2.14,0,0,1,.85.29l-.09.48a.24.24,0,0,1-.22.17,1.74,1.74,0,0,1-.52-.12,3.36,3.36,0,0,0-1-.12,4.59,4.59,0,0,0-1.72.31,3.84,3.84,0,0,0-1.33.89,5.74,5.74,0,0,0-1,1.47,13.73,13.73,0,0,0-.82,2.07v10h-.82v-15.3h.37c.21,0,.32.11.33.34Z" transform="translate(-128.41 -76.07)"/><path class="b" d="M217.55,176.35a8.76,8.76,0,0,1,2.41-1.8,6.28,6.28,0,0,1,2.87-.62,5.15,5.15,0,0,1,2.08.38,3.83,3.83,0,0,1,1.47,1.09,4.93,4.93,0,0,1,.86,1.73,9,9,0,0,1,.28,2.29v10.06h-.28a.33.33,0,0,1-.36-.32l-.16-2.27a13.78,13.78,0,0,1-1.27,1.18,7,7,0,0,1-1.35.89,6.59,6.59,0,0,1-1.54.57,7.78,7.78,0,0,1-1.81.2,4.81,4.81,0,0,1-1.45-.22,3.68,3.68,0,0,1-1.28-.68,3.4,3.4,0,0,1-.93-1.2,4.18,4.18,0,0,1-.35-1.78,3.1,3.1,0,0,1,.59-1.83,4.61,4.61,0,0,1,1.8-1.42,12.2,12.2,0,0,1,3.11-.95,28.69,28.69,0,0,1,4.47-.41v-1.82a5.7,5.7,0,0,0-1-3.57,3.52,3.52,0,0,0-2.95-1.27,5.5,5.5,0,0,0-2,.33,6.19,6.19,0,0,0-1.39.75,7.93,7.93,0,0,0-.9.74c-.22.23-.39.34-.5.34a.36.36,0,0,1-.28-.17Zm9.16,5.46a19.59,19.59,0,0,0-6.93,1.17c-1.5.67-2.25,1.62-2.25,2.84a3.47,3.47,0,0,0,.29,1.47,3.11,3.11,0,0,0,.76,1,3.19,3.19,0,0,0,1.08.6,4,4,0,0,0,1.24.2,6.8,6.8,0,0,0,3.34-.84,7.92,7.92,0,0,0,1.31-.92,15.27,15.27,0,0,0,1.16-1.12Z" transform="translate(-128.41 -76.07)"/><path class="b" d="M233.62,177.16a7.85,7.85,0,0,1,2.44-2.37,6,6,0,0,1,3.15-.86,5.45,5.45,0,0,1,4.47,1.92q1.57,1.93,1.58,5.89a10.84,10.84,0,0,1-.43,3.12,7.34,7.34,0,0,1-1.27,2.51,5.89,5.89,0,0,1-2.1,1.69,6.44,6.44,0,0,1-2.89.61,5.55,5.55,0,0,1-4.92-2.53V195h-.82V174.18h.38c.2,0,.3.1.31.31Zm0,9.14a5.77,5.77,0,0,0,2.11,2.12,5.66,5.66,0,0,0,2.68.61,5.86,5.86,0,0,0,2.63-.55,5.31,5.31,0,0,0,1.86-1.53,6.72,6.72,0,0,0,1.12-2.31,10.71,10.71,0,0,0,.37-2.9c0-2.43-.46-4.24-1.38-5.41a4.8,4.8,0,0,0-4-1.75,5.46,5.46,0,0,0-3,.88,8.07,8.07,0,0,0-2.4,2.46Z" transform="translate(-128.41 -76.07)"/><path class="b" d="M250.62,177.09a8.41,8.41,0,0,1,2.54-2.3,6.31,6.31,0,0,1,3.22-.86,5.83,5.83,0,0,1,2.22.39,4.21,4.21,0,0,1,1.59,1.14,4.79,4.79,0,0,1,.94,1.81,8.54,8.54,0,0,1,.32,2.42v9.79h-.82v-9.79a7.78,7.78,0,0,0-.27-2.14,4.08,4.08,0,0,0-.81-1.61,3.63,3.63,0,0,0-1.37-1,5,5,0,0,0-1.95-.35,5.72,5.72,0,0,0-3.09.88,8.52,8.52,0,0,0-2.52,2.43v11.59h-.83V167h.83Z" transform="translate(-128.41 -76.07)"/><path class="b" d="M278.37,174.18l-8.92,20.44a2,2,0,0,1-.19.28.4.4,0,0,1-.31.12h-.54l2.63-5.91-6.55-14.93h.62a.41.41,0,0,1,.28.09.46.46,0,0,1,.13.19l5.71,13.1a3.47,3.47,0,0,1,.23.71c.08-.21.16-.45.27-.71l5.68-13.1a.69.69,0,0,1,.16-.21.37.37,0,0,1,.23-.07Z" transform="translate(-128.41 -76.07)"/><path class="a" d="M301.25,167v22.44h-.37a.28.28,0,0,1-.32-.31l-.1-2.73a8,8,0,0,1-2.44,2.37,6,6,0,0,1-3.15.86,5.43,5.43,0,0,1-4.48-1.93q-1.58-1.92-1.57-5.88a10.75,10.75,0,0,1,.43-3.12,7.34,7.34,0,0,1,1.27-2.51,5.89,5.89,0,0,1,2.1-1.69,6.44,6.44,0,0,1,2.89-.61,6.05,6.05,0,0,1,2.85.63,5.76,5.76,0,0,1,2.07,1.88V167Zm-.82,10.23a5.92,5.92,0,0,0-2.12-2.09,5.65,5.65,0,0,0-2.67-.62,5.86,5.86,0,0,0-2.63.56,5.1,5.1,0,0,0-1.86,1.52A6.86,6.86,0,0,0,290,179a10.71,10.71,0,0,0-.37,2.9,8.75,8.75,0,0,0,1.37,5.4,4.81,4.81,0,0,0,4,1.76,5.39,5.39,0,0,0,3-.89,8,8,0,0,0,2.4-2.45Z" transform="translate(-128.41 -76.07)"/><path class="a" d="M318.07,187.6a4,4,0,0,1-.87.77,8.5,8.5,0,0,1-1.28.66,10,10,0,0,1-1.57.46,8.33,8.33,0,0,1-1.73.18,7,7,0,0,1-2.84-.55,6,6,0,0,1-2.15-1.59,7.23,7.23,0,0,1-1.38-2.56,11.41,11.41,0,0,1-.48-3.45,9.65,9.65,0,0,1,.46-3.07,7,7,0,0,1,1.33-2.4,6,6,0,0,1,2.12-1.56,6.86,6.86,0,0,1,2.86-.56,6.14,6.14,0,0,1,2.32.43,5.41,5.41,0,0,1,1.89,1.28,6,6,0,0,1,1.26,2.09,8.1,8.1,0,0,1,.46,2.84c0,.22-.09.33-.28.33h-11.6c0,.1,0,.2,0,.3v.32a10.89,10.89,0,0,0,.43,3.23,6.67,6.67,0,0,0,1.23,2.34,5.23,5.23,0,0,0,1.92,1.44,6.3,6.3,0,0,0,2.5.49,7.45,7.45,0,0,0,2.13-.27,8.94,8.94,0,0,0,1.51-.6,7.1,7.1,0,0,0,.94-.6,1.14,1.14,0,0,1,.42-.27.27.27,0,0,1,.21.09Zm-.34-7.25a7.21,7.21,0,0,0-.4-2.46,5.42,5.42,0,0,0-1.09-1.82,4.51,4.51,0,0,0-1.63-1.13,5.38,5.38,0,0,0-2.05-.39,6.38,6.38,0,0,0-2.34.41,5.15,5.15,0,0,0-1.78,1.17,6,6,0,0,0-1.2,1.83,8.14,8.14,0,0,0-.6,2.39Z" transform="translate(-128.41 -76.07)"/><path class="b" d="M330.94,175.74a.25.25,0,0,1-.24.14.74.74,0,0,1-.39-.21,4.43,4.43,0,0,0-.71-.45,6.49,6.49,0,0,0-1.12-.45,5.71,5.71,0,0,0-1.67-.21,4.91,4.91,0,0,0-1.67.28,4.29,4.29,0,0,0-1.3.72,3.25,3.25,0,0,0-.84,1.05,3,3,0,0,0-.29,1.26,2.16,2.16,0,0,0,.38,1.31,3.33,3.33,0,0,0,1,.89,7,7,0,0,0,1.41.62l1.62.51c.55.17,1.08.36,1.61.55a6.24,6.24,0,0,1,1.41.73,3.55,3.55,0,0,1,1,1.07,3.07,3.07,0,0,1,.38,1.57,4.69,4.69,0,0,1-.35,1.8,4.09,4.09,0,0,1-1,1.47,4.58,4.58,0,0,1-1.61,1,6.19,6.19,0,0,1-2.18.36,7.51,7.51,0,0,1-1.49-.13,6.42,6.42,0,0,1-1.24-.37,5.93,5.93,0,0,1-1.08-.59,8.41,8.41,0,0,1-1-.76l.2-.26a.68.68,0,0,1,.12-.12.39.39,0,0,1,.18,0,.8.8,0,0,1,.44.25,6.12,6.12,0,0,0,.78.57,6.11,6.11,0,0,0,5,.52,4,4,0,0,0,1.37-.83,3.61,3.61,0,0,0,.83-1.24,4.16,4.16,0,0,0,.27-1.5,2.37,2.37,0,0,0-.38-1.39,3.12,3.12,0,0,0-1-.94,6.55,6.55,0,0,0-1.41-.65l-1.61-.51c-.55-.16-1.09-.34-1.62-.53a6.22,6.22,0,0,1-1.41-.72,3.34,3.34,0,0,1-1-1.05,2.85,2.85,0,0,1-.38-1.55,3.33,3.33,0,0,1,.35-1.5,4,4,0,0,1,1-1.27,5,5,0,0,1,1.53-.88,6,6,0,0,1,2-.32,6.88,6.88,0,0,1,2.36.37,6.1,6.1,0,0,1,1.94,1.18Z" transform="translate(-128.41 -76.07)"/><path class="b" d="M337.53,168.65a.9.9,0,0,1-.09.4,1.16,1.16,0,0,1-.24.34,1.13,1.13,0,0,1-.34.23.93.93,0,0,1-.4.09,1,1,0,0,1-.75-.32,1,1,0,0,1-.32-.74,1.09,1.09,0,0,1,1.07-1.07,1.1,1.1,0,0,1,.4.08,1.22,1.22,0,0,1,.58.58A1,1,0,0,1,337.53,168.65Zm-.66,5.53v15.3h-.81v-15.3Z" transform="translate(-128.41 -76.07)"/><path class="b" d="M354.52,174.89v.25a.23.23,0,0,1-.1.2.43.43,0,0,1-.23.09l-2.75.11a4.55,4.55,0,0,1,.89,1.46,5.45,5.45,0,0,1-.07,3.81,4.54,4.54,0,0,1-1.07,1.54,4.72,4.72,0,0,1-1.67,1,6.27,6.27,0,0,1-2.18.35,6.11,6.11,0,0,1-2.57-.51,3.66,3.66,0,0,0-1.17,1,1.93,1.93,0,0,0-.45,1.14,1.36,1.36,0,0,0,.48,1.12,3.26,3.26,0,0,0,1.26.57,10.81,10.81,0,0,0,1.78.24l2.05.1c.7,0,1.38.09,2,.17a7,7,0,0,1,1.78.45,3.19,3.19,0,0,1,1.25.93,2.56,2.56,0,0,1,.48,1.62,3.6,3.6,0,0,1-.47,1.79,4.76,4.76,0,0,1-1.36,1.52,7.29,7.29,0,0,1-2.13,1,9,9,0,0,1-2.79.4,10.52,10.52,0,0,1-2.77-.33,6.36,6.36,0,0,1-2-.89,3.87,3.87,0,0,1-1.22-1.31,3.21,3.21,0,0,1-.42-1.59A3.13,3.13,0,0,1,342,189a5.49,5.49,0,0,1,2.33-1.42,3.13,3.13,0,0,1-1.35-.73,2,2,0,0,1-.37-2,3,3,0,0,1,.37-.68,3.94,3.94,0,0,1,.59-.65,3.32,3.32,0,0,1,.77-.54,4.42,4.42,0,0,1-1.66-1.69,5,5,0,0,1-.59-2.46,5.29,5.29,0,0,1,.37-2,4.45,4.45,0,0,1,1.07-1.53,4.65,4.65,0,0,1,1.67-1,6.27,6.27,0,0,1,2.18-.36,6.39,6.39,0,0,1,1.86.25,4.94,4.94,0,0,1,1.5.71Zm-1,15.74a2,2,0,0,0-.41-1.3,2.73,2.73,0,0,0-1.09-.77,6.15,6.15,0,0,0-1.56-.38c-.59-.07-1.2-.12-1.84-.16l-1.91-.09a13.63,13.63,0,0,1-1.78-.2,7.56,7.56,0,0,0-1.25.58,4.63,4.63,0,0,0-1,.75,3.17,3.17,0,0,0-.65.94,2.72,2.72,0,0,0-.23,1.11,2.67,2.67,0,0,0,.39,1.4,3.45,3.45,0,0,0,1.12,1.13,6.5,6.5,0,0,0,1.8.75,9.17,9.17,0,0,0,2.39.28,8.56,8.56,0,0,0,2.29-.3,6.39,6.39,0,0,0,1.91-.83,4.22,4.22,0,0,0,1.31-1.28A3,3,0,0,0,353.54,190.63Zm-6.2-7.53a5.45,5.45,0,0,0,1.92-.31,4,4,0,0,0,1.43-.88,3.7,3.7,0,0,0,.89-1.35,4.81,4.81,0,0,0,.3-1.74,4.89,4.89,0,0,0-.31-1.74,3.72,3.72,0,0,0-.9-1.35,4.05,4.05,0,0,0-1.42-.87,5.47,5.47,0,0,0-1.91-.31,5.35,5.35,0,0,0-1.89.31,4.14,4.14,0,0,0-1.42.87,3.58,3.58,0,0,0-.89,1.35,4.68,4.68,0,0,0-.31,1.74,4.61,4.61,0,0,0,.31,1.74,3.58,3.58,0,0,0,.89,1.35,4,4,0,0,0,1.42.88A5.35,5.35,0,0,0,347.34,183.1Z" transform="translate(-128.41 -76.07)"/><path class="b" d="M359,177.14a8.49,8.49,0,0,1,2.56-2.34,6.23,6.23,0,0,1,3.23-.87,5.88,5.88,0,0,1,2.23.39,4.1,4.1,0,0,1,1.58,1.14,4.8,4.8,0,0,1,.95,1.81,8.54,8.54,0,0,1,.32,2.42v9.79h-.82v-9.79a7.78,7.78,0,0,0-.27-2.14,4.21,4.21,0,0,0-.81-1.61,3.59,3.59,0,0,0-1.38-1,4.94,4.94,0,0,0-1.94-.35,5.72,5.72,0,0,0-3.09.88,8.67,8.67,0,0,0-2.53,2.43v11.59h-.82v-15.3h.39c.2,0,.3.1.31.31Z" transform="translate(-128.41 -76.07)"/><path class="b" d="M132,218.39V203.08h.39a.28.28,0,0,1,.31.31l.1,2.58a7.87,7.87,0,0,1,2.11-2.28,4.61,4.61,0,0,1,2.7-.86,3.72,3.72,0,0,1,2.78,1.06,5.39,5.39,0,0,1,1.33,3,5.63,5.63,0,0,1,.72-1.78,5.33,5.33,0,0,1,1.14-1.26,4.54,4.54,0,0,1,1.43-.74,5.4,5.4,0,0,1,1.6-.25,5,5,0,0,1,2,.39,4,4,0,0,1,1.51,1.1,5.11,5.11,0,0,1,1,1.81,8,8,0,0,1,.34,2.46v9.8h-.82v-9.8a5.88,5.88,0,0,0-1.07-3.79,3.66,3.66,0,0,0-3-1.31,4.5,4.5,0,0,0-1.67.31,4,4,0,0,0-1.41,1,4.83,4.83,0,0,0-1,1.6,6,6,0,0,0-.37,2.22v9.8h-.83v-9.8a6.39,6.39,0,0,0-1-3.77,3.25,3.25,0,0,0-2.82-1.33,4.17,4.17,0,0,0-2.56.87,7.74,7.74,0,0,0-2,2.39v11.64Z" transform="translate(-128.41 -76.07)"/><path class="b" d="M158.37,197.56a.9.9,0,0,1-.09.4,1.12,1.12,0,0,1-.24.33,1.16,1.16,0,0,1-.34.24,1.1,1.1,0,0,1-.4.08,1.09,1.09,0,0,1-1.07-1.05,1.07,1.07,0,0,1,.32-.76,1,1,0,0,1,.75-.31.92.92,0,0,1,.4.08,1.36,1.36,0,0,1,.34.23,1.31,1.31,0,0,1,.24.34A1,1,0,0,1,158.37,197.56Zm-.66,5.52v15.31h-.81V203.08Z" transform="translate(-128.41 -76.07)"/><path class="b" d="M173.46,204.76l-.09.09a.23.23,0,0,1-.13,0,.76.76,0,0,1-.38-.21,4.61,4.61,0,0,0-.73-.48,6.09,6.09,0,0,0-1.18-.49,6.87,6.87,0,0,0-4.26.29,5.15,5.15,0,0,0-1.88,1.45,6.31,6.31,0,0,0-1.17,2.28,10.45,10.45,0,0,0-.41,3,10.59,10.59,0,0,0,.41,3.06,6.62,6.62,0,0,0,1.17,2.26,4.94,4.94,0,0,0,1.81,1.4,5.7,5.7,0,0,0,2.37.48,6.23,6.23,0,0,0,2-.27,6.39,6.39,0,0,0,1.33-.61,5.31,5.31,0,0,0,.81-.6c.18-.18.32-.27.4-.27a.25.25,0,0,1,.2.09l.19.23a4,4,0,0,1-.77.76,5.68,5.68,0,0,1-1.14.66,7.63,7.63,0,0,1-1.42.47,7.5,7.5,0,0,1-1.67.18,6.53,6.53,0,0,1-2.67-.53,5.52,5.52,0,0,1-2-1.54,7.19,7.19,0,0,1-1.32-2.47,10.83,10.83,0,0,1-.46-3.3,10.59,10.59,0,0,1,.46-3.23,6.89,6.89,0,0,1,1.32-2.49,6,6,0,0,1,2.13-1.61,6.9,6.9,0,0,1,2.87-.58,6.82,6.82,0,0,1,2.55.46,6.34,6.34,0,0,1,1.92,1.21Z" transform="translate(-128.41 -76.07)"/><path class="b" d="M178.69,207.18a10.2,10.2,0,0,1,.81-1.85,5.68,5.68,0,0,1,1.08-1.36,4.23,4.23,0,0,1,1.39-.85,5.06,5.06,0,0,1,1.75-.29,7.56,7.56,0,0,1,.93.07,2.53,2.53,0,0,1,.84.29l-.09.48a.21.21,0,0,1-.22.17,2.18,2.18,0,0,1-.52-.11,3.31,3.31,0,0,0-1-.12,4.67,4.67,0,0,0-1.72.3,4,4,0,0,0-1.33.9,5.72,5.72,0,0,0-1,1.47,13.7,13.7,0,0,0-.83,2.07v10h-.82V203.08h.37c.21,0,.32.12.33.34Z" transform="translate(-128.41 -76.07)"/><path class="b" d="M193.57,202.83a7,7,0,0,1,2.89.57,5.93,5.93,0,0,1,2.13,1.6,7.06,7.06,0,0,1,1.32,2.49,11,11,0,0,1,.45,3.25,10.82,10.82,0,0,1-.45,3.23,6.93,6.93,0,0,1-1.32,2.48,5.88,5.88,0,0,1-2.13,1.58,7.89,7.89,0,0,1-5.79,0,5.92,5.92,0,0,1-2.14-1.58,7.07,7.07,0,0,1-1.31-2.48,10.82,10.82,0,0,1-.45-3.23,11,11,0,0,1,.45-3.25,7.21,7.21,0,0,1,1.31-2.49,6,6,0,0,1,2.14-1.6A7,7,0,0,1,193.57,202.83Zm0,15.09a6.19,6.19,0,0,0,2.6-.51A5,5,0,0,0,198,216a6.24,6.24,0,0,0,1.13-2.26,10.83,10.83,0,0,0,.37-2.95,11,11,0,0,0-.37-3,6.38,6.38,0,0,0-1.13-2.29,5,5,0,0,0-1.87-1.47,6.79,6.79,0,0,0-5.21,0,5,5,0,0,0-1.87,1.47,6.38,6.38,0,0,0-1.13,2.29,11,11,0,0,0-.37,3,10.83,10.83,0,0,0,.37,2.95,6.24,6.24,0,0,0,1.13,2.26,5,5,0,0,0,1.87,1.46A6.2,6.2,0,0,0,193.57,217.92Z" transform="translate(-128.41 -76.07)"/><path class="b" d="M213,204.65a.25.25,0,0,1-.23.14.76.76,0,0,1-.4-.21,4.28,4.28,0,0,0-.7-.45,6.63,6.63,0,0,0-1.13-.45,5.66,5.66,0,0,0-1.67-.21,5,5,0,0,0-1.67.27,4.23,4.23,0,0,0-1.29.72,3.29,3.29,0,0,0-.84,1.06,2.78,2.78,0,0,0-.3,1.26,2.17,2.17,0,0,0,.38,1.3,3.24,3.24,0,0,0,1,.89,7.05,7.05,0,0,0,1.41.63l1.61.51c.55.17,1.09.35,1.62.55a6.24,6.24,0,0,1,1.41.73,3.51,3.51,0,0,1,1,1.07,3,3,0,0,1,.38,1.57,4.69,4.69,0,0,1-.34,1.8,4.22,4.22,0,0,1-1,1.47,4.89,4.89,0,0,1-1.61,1,6.21,6.21,0,0,1-2.19.36,8.52,8.52,0,0,1-1.49-.13,6.65,6.65,0,0,1-1.24-.38,5.8,5.8,0,0,1-1.07-.58,9.69,9.69,0,0,1-1-.76l.2-.26.12-.12a.25.25,0,0,1,.17,0,.82.82,0,0,1,.45.26,5.86,5.86,0,0,0,2,1.13,5.63,5.63,0,0,0,1.83.26,5.28,5.28,0,0,0,1.89-.31,3.8,3.8,0,0,0,1.36-.83,3.31,3.31,0,0,0,.83-1.23,4,4,0,0,0,.28-1.5,2.48,2.48,0,0,0-.38-1.4,3.19,3.19,0,0,0-1-.93,6.55,6.55,0,0,0-1.41-.65c-.53-.17-1.07-.35-1.62-.51s-1.08-.35-1.61-.54a6.2,6.2,0,0,1-1.41-.71,3.48,3.48,0,0,1-1-1,2.94,2.94,0,0,1-.38-1.55,3.44,3.44,0,0,1,.35-1.5,4,4,0,0,1,1-1.27,4.76,4.76,0,0,1,1.53-.88,5.69,5.69,0,0,1,2-.33,6.83,6.83,0,0,1,2.36.38,6,6,0,0,1,1.94,1.18Z" transform="translate(-128.41 -76.07)"/><path class="b" d="M229.63,203.08l-8.93,20.45a1.26,1.26,0,0,1-.19.28.39.39,0,0,1-.31.12h-.54L222.3,218l-6.55-14.94h.62a.36.36,0,0,1,.27.1.41.41,0,0,1,.13.18l5.72,13.11a3.28,3.28,0,0,1,.23.71c.07-.22.16-.46.26-.71l5.68-13.11a.67.67,0,0,1,.17-.2.35.35,0,0,1,.22-.08Z" transform="translate(-128.41 -76.07)"/><path class="b" d="M241,204.65a.27.27,0,0,1-.24.14.74.74,0,0,1-.39-.21,4.43,4.43,0,0,0-.71-.45,6.49,6.49,0,0,0-1.12-.45,5.71,5.71,0,0,0-1.67-.21,4.92,4.92,0,0,0-1.67.27,4.29,4.29,0,0,0-1.3.72,3.29,3.29,0,0,0-.84,1.06,2.91,2.91,0,0,0-.29,1.26,2.17,2.17,0,0,0,.38,1.3,3.2,3.2,0,0,0,1,.89,7.32,7.32,0,0,0,1.41.63l1.62.51c.55.17,1.08.35,1.61.55a6.54,6.54,0,0,1,1.42.73,3.64,3.64,0,0,1,1,1.07,3,3,0,0,1,.38,1.57,4.69,4.69,0,0,1-.35,1.8,4.09,4.09,0,0,1-1,1.47,4.79,4.79,0,0,1-1.61,1,6.15,6.15,0,0,1-2.18.36,8.35,8.35,0,0,1-1.49-.13,6.42,6.42,0,0,1-1.24-.38,5.89,5.89,0,0,1-1.08-.58,9.69,9.69,0,0,1-1-.76l.2-.26.12-.12a.3.3,0,0,1,.18,0,.84.84,0,0,1,.44.26,5.32,5.32,0,0,0,.78.56,5.49,5.49,0,0,0,3.06.83,5.2,5.2,0,0,0,1.89-.31,3.84,3.84,0,0,0,1.37-.83,3.57,3.57,0,0,0,.83-1.23,4.16,4.16,0,0,0,.28-1.5,2.48,2.48,0,0,0-.38-1.4,3.23,3.23,0,0,0-1-.93,6.55,6.55,0,0,0-1.41-.65c-.53-.17-1.06-.35-1.61-.51s-1.09-.35-1.62-.54a6.2,6.2,0,0,1-1.41-.71,3.45,3.45,0,0,1-1-1,2.85,2.85,0,0,1-.38-1.55,3.3,3.3,0,0,1,.35-1.5,4,4,0,0,1,1-1.27,5,5,0,0,1,1.53-.88,5.75,5.75,0,0,1,2-.33,6.87,6.87,0,0,1,2.36.38,6.1,6.1,0,0,1,1.94,1.18Z" transform="translate(-128.41 -76.07)"/><path class="b" d="M249.88,218.64a3,3,0,0,1-2.23-.79,3.37,3.37,0,0,1-.81-2.52v-11h-2.39c-.2,0-.29-.07-.29-.23v-.28l2.68-.11.24-5.9a.36.36,0,0,1,.07-.17.2.2,0,0,1,.17-.09h.34v6.16h5.07v.62h-5.07v11a3.63,3.63,0,0,0,.19,1.22,2.42,2.42,0,0,0,.5.83,1.71,1.71,0,0,0,.74.47,2.73,2.73,0,0,0,.92.15,2.68,2.68,0,0,0,1.06-.19,3.88,3.88,0,0,0,.79-.4,4.33,4.33,0,0,0,.52-.4c.14-.13.24-.19.3-.19a.26.26,0,0,1,.17.09l.2.3a3.42,3.42,0,0,1-.61.59,4.41,4.41,0,0,1-1.64.76A4,4,0,0,1,249.88,218.64Z" transform="translate(-128.41 -76.07)"/><path class="a" d="M267.68,216.51a3.94,3.94,0,0,1-.87.76,7,7,0,0,1-1.28.66,10.29,10.29,0,0,1-1.57.47,8.33,8.33,0,0,1-1.73.18,7.19,7.19,0,0,1-2.84-.55,5.86,5.86,0,0,1-2.15-1.6,7.1,7.1,0,0,1-1.38-2.55,11.41,11.41,0,0,1-.48-3.45,9.65,9.65,0,0,1,.46-3.07,6.83,6.83,0,0,1,1.33-2.4,6.05,6.05,0,0,1,2.12-1.57,7,7,0,0,1,2.86-.56,6.14,6.14,0,0,1,2.32.44,5.41,5.41,0,0,1,1.89,1.28,6,6,0,0,1,1.26,2.09,8.06,8.06,0,0,1,.46,2.84c0,.22-.09.33-.28.33H256.2c0,.1,0,.2,0,.3v.32a10.82,10.82,0,0,0,.43,3.22,6.63,6.63,0,0,0,1.23,2.35,5.23,5.23,0,0,0,1.92,1.44,6.3,6.3,0,0,0,2.5.48,7.45,7.45,0,0,0,2.13-.27,8.17,8.17,0,0,0,1.51-.6,6.26,6.26,0,0,0,.94-.59,1.14,1.14,0,0,1,.42-.27.25.25,0,0,1,.2.09Zm-.35-7.25a7.22,7.22,0,0,0-.39-2.46,5.38,5.38,0,0,0-1.09-1.82,4.58,4.58,0,0,0-1.64-1.14,5.5,5.5,0,0,0-2-.38,6.16,6.16,0,0,0-2.33.41,5,5,0,0,0-1.78,1.17,5.81,5.81,0,0,0-1.2,1.83,8.06,8.06,0,0,0-.6,2.39Z" transform="translate(-128.41 -76.07)"/><path class="a" d="M272.41,218.39V203.08h.39a.29.29,0,0,1,.31.31l.09,2.58a7.9,7.9,0,0,1,2.12-2.28,4.58,4.58,0,0,1,2.69-.86,3.71,3.71,0,0,1,2.78,1.06,5.33,5.33,0,0,1,1.34,3,5.2,5.2,0,0,1,.72-1.78,5.33,5.33,0,0,1,1.14-1.26,4.43,4.43,0,0,1,1.43-.74,5.4,5.4,0,0,1,1.6-.25,4.91,4.91,0,0,1,2,.39,4.08,4.08,0,0,1,1.52,1.1,5.11,5.11,0,0,1,1,1.81,8.32,8.32,0,0,1,.33,2.46v9.8H291v-9.8a5.88,5.88,0,0,0-1.06-3.79,3.67,3.67,0,0,0-3-1.31,4.45,4.45,0,0,0-1.66.31,4,4,0,0,0-1.42,1,4.81,4.81,0,0,0-1,1.6,6,6,0,0,0-.38,2.22v9.8h-.82v-9.8a6.39,6.39,0,0,0-1-3.77,3.26,3.26,0,0,0-2.83-1.33,4.19,4.19,0,0,0-2.56.87,7.87,7.87,0,0,0-2,2.39v11.64Z" transform="translate(-128.41 -76.07)"/></svg>